<mxfile host="app.diagrams.net" modified="2021-12-03T19:43:45.729Z" agent="5.0 (Windows NT 10.0; Win64; x64) AppleWebKit/537.36 (KHTML, like Gecko) Chrome/96.0.4664.55 Safari/537.36 Edg/96.0.1054.41" etag="lUZ4rUQv_vv9beWpLpRn" version="15.8.9" type="github">
  <diagram id="prtHgNgQTEPvFCAcTncT" name="Page-1">
    <mxGraphModel dx="1609" dy="468" grid="1" gridSize="10" guides="1" tooltips="1" connect="1" arrows="1" fold="1" page="1" pageScale="1" pageWidth="827" pageHeight="1169" math="0" shadow="0">
      <root>
        <mxCell id="0" />
        <mxCell id="1" parent="0" />
        <mxCell id="j8EUdywOkvV9mqTF1EU3-1" value="Users" style="swimlane;childLayout=stackLayout;horizontal=1;startSize=30;horizontalStack=0;rounded=1;fontSize=14;fontStyle=0;strokeWidth=2;resizeParent=0;resizeLast=1;shadow=0;dashed=0;align=center;" parent="1" vertex="1">
          <mxGeometry x="30" y="570" width="160" height="120" as="geometry" />
        </mxCell>
        <mxCell id="j8EUdywOkvV9mqTF1EU3-2" value="id&#xa;username&#xa;password&#xa;" style="align=left;strokeColor=none;fillColor=none;spacingLeft=4;fontSize=12;verticalAlign=top;resizable=0;rotatable=0;part=1;" parent="j8EUdywOkvV9mqTF1EU3-1" vertex="1">
          <mxGeometry y="30" width="160" height="90" as="geometry" />
        </mxCell>
        <mxCell id="FoUPstjT5KhiDO4rGP23-22" value="" style="fontSize=12;html=1;endArrow=ERoneToMany;rounded=1;elbow=vertical;exitX=0.75;exitY=1;exitDx=0;exitDy=0;" parent="j8EUdywOkvV9mqTF1EU3-1" source="j8EUdywOkvV9mqTF1EU3-2" edge="1">
          <mxGeometry width="100" height="100" relative="1" as="geometry">
            <mxPoint x="110" y="75" as="sourcePoint" />
            <mxPoint x="120" y="175" as="targetPoint" />
          </mxGeometry>
        </mxCell>
        <mxCell id="j8EUdywOkvV9mqTF1EU3-3" value="Business" style="swimlane;childLayout=stackLayout;horizontal=1;startSize=30;horizontalStack=0;rounded=1;fontSize=14;fontStyle=0;strokeWidth=2;resizeParent=0;resizeLast=1;shadow=0;dashed=0;align=center;" parent="1" vertex="1">
          <mxGeometry x="340" y="560" width="160" height="120" as="geometry" />
        </mxCell>
        <mxCell id="j8EUdywOkvV9mqTF1EU3-4" value="id&#xa;business_name&#xa;user_id" style="align=left;strokeColor=none;fillColor=none;spacingLeft=4;fontSize=12;verticalAlign=top;resizable=0;rotatable=0;part=1;" parent="j8EUdywOkvV9mqTF1EU3-3" vertex="1">
          <mxGeometry y="30" width="160" height="90" as="geometry" />
        </mxCell>
        <mxCell id="j8EUdywOkvV9mqTF1EU3-5" value="Posts" style="swimlane;childLayout=stackLayout;horizontal=1;startSize=30;horizontalStack=0;rounded=1;fontSize=14;fontStyle=0;strokeWidth=2;resizeParent=0;resizeLast=1;shadow=0;dashed=0;align=center;" parent="1" vertex="1">
          <mxGeometry x="400" y="740" width="160" height="130" as="geometry" />
        </mxCell>
        <mxCell id="j8EUdywOkvV9mqTF1EU3-6" value="title&#xa;description&#xa;images&#xa;post_type&#xa;business_id&#xa;id&#xa;" style="align=left;strokeColor=none;fillColor=none;spacingLeft=4;fontSize=12;verticalAlign=top;resizable=0;rotatable=0;part=1;" parent="j8EUdywOkvV9mqTF1EU3-5" vertex="1">
          <mxGeometry y="30" width="160" height="100" as="geometry" />
        </mxCell>
        <mxCell id="FoUPstjT5KhiDO4rGP23-1" value="Following" style="swimlane;childLayout=stackLayout;horizontal=1;startSize=30;horizontalStack=0;rounded=1;fontSize=14;fontStyle=0;strokeWidth=2;resizeParent=0;resizeLast=1;shadow=0;dashed=0;align=center;" parent="1" vertex="1">
          <mxGeometry x="50" y="745" width="160" height="120" as="geometry" />
        </mxCell>
        <mxCell id="FoUPstjT5KhiDO4rGP23-2" value="user_id&#xa;business_id&#xa;id&#xa;" style="align=left;strokeColor=none;fillColor=none;spacingLeft=4;fontSize=12;verticalAlign=top;resizable=0;rotatable=0;part=1;" parent="FoUPstjT5KhiDO4rGP23-1" vertex="1">
          <mxGeometry y="30" width="160" height="90" as="geometry" />
        </mxCell>
        <mxCell id="FoUPstjT5KhiDO4rGP23-5" value="" style="edgeStyle=entityRelationEdgeStyle;fontSize=12;html=1;endArrow=ERoneToMany;rounded=0;exitX=1.008;exitY=0.156;exitDx=0;exitDy=0;exitPerimeter=0;entryX=0;entryY=0.5;entryDx=0;entryDy=0;" parent="1" source="j8EUdywOkvV9mqTF1EU3-2" target="j8EUdywOkvV9mqTF1EU3-4" edge="1">
          <mxGeometry width="100" height="100" relative="1" as="geometry">
            <mxPoint x="200" y="680" as="sourcePoint" />
            <mxPoint x="300" y="580" as="targetPoint" />
          </mxGeometry>
        </mxCell>
        <mxCell id="FoUPstjT5KhiDO4rGP23-6" value="" style="edgeStyle=entityRelationEdgeStyle;fontSize=12;html=1;endArrow=ERoneToMany;rounded=0;exitX=1.008;exitY=0.156;exitDx=0;exitDy=0;exitPerimeter=0;" parent="1" edge="1">
          <mxGeometry width="100" height="100" relative="1" as="geometry">
            <mxPoint x="500" y="600" as="sourcePoint" />
            <mxPoint x="400" y="840" as="targetPoint" />
          </mxGeometry>
        </mxCell>
        <mxCell id="FoUPstjT5KhiDO4rGP23-7" value="Chat" style="swimlane;childLayout=stackLayout;horizontal=1;startSize=30;horizontalStack=0;rounded=1;fontSize=14;fontStyle=0;strokeWidth=2;resizeParent=0;resizeLast=1;shadow=0;dashed=0;align=center;" parent="1" vertex="1">
          <mxGeometry x="250" y="340" width="160" height="120" as="geometry" />
        </mxCell>
        <mxCell id="FoUPstjT5KhiDO4rGP23-8" value="user_id&#xa;business_id&#xa;id&#xa;message&#xa;created_at&#xa;" style="align=left;strokeColor=none;fillColor=none;spacingLeft=4;fontSize=12;verticalAlign=top;resizable=0;rotatable=0;part=1;" parent="FoUPstjT5KhiDO4rGP23-7" vertex="1">
          <mxGeometry y="30" width="160" height="90" as="geometry" />
        </mxCell>
        <mxCell id="FoUPstjT5KhiDO4rGP23-10" value="Affiliate" style="swimlane;childLayout=stackLayout;horizontal=1;startSize=30;horizontalStack=0;rounded=1;fontSize=14;fontStyle=0;strokeWidth=2;resizeParent=0;resizeLast=1;shadow=0;dashed=0;align=center;" parent="1" vertex="1">
          <mxGeometry x="500" y="350" width="160" height="120" as="geometry" />
        </mxCell>
        <mxCell id="FoUPstjT5KhiDO4rGP23-15" value="id&#xa;business_id&#xa;user_id" style="align=left;strokeColor=none;fillColor=none;spacingLeft=4;fontSize=12;verticalAlign=top;resizable=0;rotatable=0;part=1;" parent="FoUPstjT5KhiDO4rGP23-10" vertex="1">
          <mxGeometry y="30" width="160" height="90" as="geometry" />
        </mxCell>
        <mxCell id="FoUPstjT5KhiDO4rGP23-17" value="" style="edgeStyle=entityRelationEdgeStyle;fontSize=12;html=1;endArrow=ERmany;startArrow=ERmany;rounded=0;" parent="1" edge="1">
          <mxGeometry width="100" height="100" relative="1" as="geometry">
            <mxPoint x="660" y="390" as="sourcePoint" />
            <mxPoint x="340" y="601" as="targetPoint" />
          </mxGeometry>
        </mxCell>
        <mxCell id="FoUPstjT5KhiDO4rGP23-20" value="" style="edgeStyle=entityRelationEdgeStyle;fontSize=12;html=1;endArrow=ERmany;rounded=1;elbow=vertical;exitX=1.008;exitY=0.107;exitDx=0;exitDy=0;exitPerimeter=0;entryX=-0.017;entryY=0.181;entryDx=0;entryDy=0;entryPerimeter=0;" parent="1" source="j8EUdywOkvV9mqTF1EU3-2" target="FoUPstjT5KhiDO4rGP23-8" edge="1">
          <mxGeometry width="100" height="100" relative="1" as="geometry">
            <mxPoint x="110" y="460" as="sourcePoint" />
            <mxPoint x="210" y="360" as="targetPoint" />
          </mxGeometry>
        </mxCell>
        <mxCell id="FoUPstjT5KhiDO4rGP23-21" value="" style="fontSize=12;html=1;endArrow=ERoneToMany;rounded=1;elbow=vertical;entryX=0.294;entryY=-0.027;entryDx=0;entryDy=0;entryPerimeter=0;" parent="1" target="j8EUdywOkvV9mqTF1EU3-3" edge="1">
          <mxGeometry width="100" height="100" relative="1" as="geometry">
            <mxPoint x="387" y="463" as="sourcePoint" />
            <mxPoint x="400" y="550" as="targetPoint" />
          </mxGeometry>
        </mxCell>
        <mxCell id="FoUPstjT5KhiDO4rGP23-23" value="Part_of_business" style="swimlane;childLayout=stackLayout;horizontal=1;startSize=30;horizontalStack=0;rounded=1;fontSize=14;fontStyle=0;strokeWidth=2;resizeParent=0;resizeLast=1;shadow=0;dashed=0;align=center;" parent="1" vertex="1">
          <mxGeometry x="-10" y="350" width="160" height="120" as="geometry" />
        </mxCell>
        <mxCell id="FoUPstjT5KhiDO4rGP23-24" value="user_id&#xa;business_id&#xa;id&#xa;" style="align=left;strokeColor=none;fillColor=none;spacingLeft=4;fontSize=12;verticalAlign=top;resizable=0;rotatable=0;part=1;" parent="FoUPstjT5KhiDO4rGP23-23" vertex="1">
          <mxGeometry y="30" width="160" height="90" as="geometry" />
        </mxCell>
        <mxCell id="FoUPstjT5KhiDO4rGP23-25" value="" style="fontSize=12;html=1;endArrow=ERmany;rounded=1;elbow=vertical;entryX=0.378;entryY=1.044;entryDx=0;entryDy=0;entryPerimeter=0;exitX=0.134;exitY=0.004;exitDx=0;exitDy=0;exitPerimeter=0;" parent="1" source="j8EUdywOkvV9mqTF1EU3-1" target="FoUPstjT5KhiDO4rGP23-24" edge="1">
          <mxGeometry width="100" height="100" relative="1" as="geometry">
            <mxPoint x="-120" y="660" as="sourcePoint" />
            <mxPoint x="-20" y="560" as="targetPoint" />
          </mxGeometry>
        </mxCell>
      </root>
    </mxGraphModel>
  </diagram>
</mxfile>
